<svg width="68" height="15" viewBox="0 0 68 15" fill="none" xmlns="http://www.w3.org/2000/svg">
<path d="M20.71 10.3408H15.8199L14.647 13.8094H12.5751L17.207 0.978231H19.358L23.9899 13.8094H21.8829L20.71 10.3408ZM16.3273 8.74086H20.2025L18.2904 3.11208H18.2377L16.3273 8.74086ZM25.0821 4.45385H26.9134V6.04501H26.9573C27.2681 4.95087 28.1039 4.30281 29.2066 4.30281C29.4823 4.30281 29.7228 4.34672 29.865 4.37482V6.16268C29.714 6.10121 29.3769 6.05555 29.0029 6.05555C27.7668 6.05555 27.003 6.88274 27.003 8.20696V13.8094H25.0821V4.45385ZM36.8885 7.67306C36.6936 6.67726 35.9456 5.88519 34.6937 5.88519C33.2082 5.88519 32.2319 7.12159 32.2319 9.13074C32.2319 11.1856 33.2187 12.3763 34.713 12.3763C35.8947 12.3763 36.669 11.7265 36.8902 10.6429H38.7392C38.5337 12.6345 36.9429 13.9868 34.6937 13.9868C32.0177 13.9868 30.2759 12.155 30.2759 9.1325C30.2759 6.16268 32.0177 4.28701 34.6761 4.28701C37.0851 4.28701 38.5513 5.83426 38.7216 7.67481L36.8885 7.67306ZM39.726 11.1504C39.726 9.51361 40.9796 8.50903 43.2026 8.38434L45.7626 8.2333V7.51324C45.7626 6.47354 45.0603 5.85007 43.8874 5.85007C42.7759 5.85007 42.0823 6.38397 41.9138 7.21994H40.1C40.2071 5.53043 41.6469 4.28525 43.9576 4.28525C46.2244 4.28525 47.673 5.48477 47.673 7.3622V13.8094H45.8329V12.2709H45.789C45.2464 13.3106 44.0647 13.9692 42.8373 13.9692C41.006 13.9692 39.726 12.8312 39.726 11.1504ZM45.7626 10.3057V9.56805L43.4607 9.71031C42.3141 9.79109 41.6644 10.2969 41.6644 11.0977C41.6644 11.9162 42.3404 12.4501 43.3711 12.4501C44.7126 12.4483 45.7626 11.5245 45.7626 10.3057ZM49.0233 9.1325C49.0233 6.18024 50.5877 4.30457 52.9353 4.30457C54.2768 4.30457 55.3444 4.98073 55.8694 6.01164H55.9045V0.978231H57.8342V13.8094H55.9659V12.2182H55.9308C55.3795 13.2843 54.3137 13.9692 52.9529 13.9692C50.5877 13.9692 49.0233 12.083 49.0233 9.1325ZM50.9881 9.1325C50.9881 11.1065 51.9397 12.3429 53.4603 12.3429C54.9352 12.3429 55.922 11.089 55.922 9.1325C55.922 7.1936 54.9352 5.92208 53.4603 5.92208C51.9397 5.92208 50.9881 7.16726 50.9881 9.1325ZM67.653 11.0609C67.3861 12.7679 65.7689 13.9868 63.6268 13.9868C60.8806 13.9868 59.2178 12.1287 59.2178 9.17641C59.2178 6.24171 60.9069 4.28525 63.5477 4.28525C66.1429 4.28525 67.7618 6.11702 67.7618 8.95336V9.61196H61.1563V9.72787C61.1563 11.3542 62.1343 12.4307 63.6724 12.4307C64.7663 12.4307 65.574 11.8793 65.8321 11.0609C65.8304 11.0609 67.653 11.0609 67.653 11.0609ZM61.1633 8.26843H65.8391C65.7952 6.83708 64.8875 5.83251 63.546 5.83251C62.2045 5.83251 61.2616 6.85464 61.1633 8.26843ZM7.72712 2.23044C8.20647 1.6298 8.53306 0.823681 8.44703 0C7.74468 0.035125 6.88782 0.46365 6.39091 1.06429C5.94492 1.57887 5.55161 2.41836 5.65345 3.20867C6.44183 3.27716 7.23021 2.81351 7.72712 2.23044ZM8.43825 3.36146C7.29342 3.29297 6.31892 4.01128 5.77285 4.01128C5.22502 4.01128 4.38747 3.39483 3.4832 3.41239C2.30502 3.42996 1.21112 4.09558 0.612367 5.15635C-0.618492 7.2779 0.287533 10.4251 1.48503 12.1515C2.06622 13.0068 2.76681 13.9481 3.68864 13.913C4.5613 13.8796 4.90194 13.3475 5.96248 13.3475C7.02127 13.3475 7.32854 13.913 8.25213 13.8955C9.20907 13.8779 9.80782 13.0402 10.389 12.1849C11.0562 11.2101 11.3284 10.2688 11.346 10.2179C11.3284 10.2003 9.50054 9.49956 9.48298 7.39557C9.46543 5.63405 10.9193 4.79632 10.986 4.74363C10.1643 3.53358 8.88248 3.39659 8.43825 3.36146Z" fill="black"/>
</svg>
